<svg width="236" height="34" viewBox="0 0 236 34" fill="none" xmlns="http://www.w3.org/2000/svg">
<path d="M1 15L1 23" stroke="white" stroke-width="2" stroke-linecap="round"/>
<path d="M7 15L7 23" stroke="white" stroke-width="2" stroke-linecap="round"/>
<path d="M19 6L19 23" stroke="white" stroke-width="2" stroke-linecap="round"/>
<path d="M67 7L67 23" stroke="#A3A3A3" stroke-width="2" stroke-linecap="round"/>
<path d="M157 7L157 23" stroke="#A3A3A3" stroke-width="2" stroke-linecap="round"/>
<path d="M205 7L205 23" stroke="#A3A3A3" stroke-width="2" stroke-linecap="round"/>
<path d="M25 12L25 23" stroke="white" stroke-width="2" stroke-linecap="round"/>
<path d="M73 12L73 23" stroke="#A3A3A3" stroke-width="2" stroke-linecap="round"/>
<path d="M163 12L163 23" stroke="#A3A3A3" stroke-width="2" stroke-linecap="round"/>
<path d="M211 12L211 23" stroke="#A3A3A3" stroke-width="2" stroke-linecap="round"/>
<path d="M31 15L31 23" stroke="white" stroke-width="2" stroke-linecap="round"/>
<path d="M79 15L79 23" stroke="#A3A3A3" stroke-width="2" stroke-linecap="round"/>
<path d="M85 15L85 23" stroke="#A3A3A3" stroke-width="2" stroke-linecap="round"/>
<path d="M169 15L169 23" stroke="#A3A3A3" stroke-width="2" stroke-linecap="round"/>
<path d="M217 15L217 23" stroke="#A3A3A3" stroke-width="2" stroke-linecap="round"/>
<path d="M223 15L223 23" stroke="#A3A3A3" stroke-width="2" stroke-linecap="round"/>
<path d="M229 15L229 23" stroke="#A3A3A3" stroke-width="2" stroke-linecap="round"/>
<path d="M235 15L235 23" stroke="#A3A3A3" stroke-width="2" stroke-linecap="round"/>
<path d="M91 15L91 23" stroke="#A3A3A3" stroke-width="2" stroke-linecap="round"/>
<path d="M97 15L97 23" stroke="#A3A3A3" stroke-width="2" stroke-linecap="round"/>
<path d="M139 15L139 23" stroke="#A3A3A3" stroke-width="2" stroke-linecap="round"/>
<path d="M145 15L145 23" stroke="#A3A3A3" stroke-width="2" stroke-linecap="round"/>
<path d="M151 15L151 23" stroke="#A3A3A3" stroke-width="2" stroke-linecap="round"/>
<path d="M37 15L37 28" stroke="#A3A3A3" stroke-width="2" stroke-linecap="round"/>
<path d="M103 15L103 28" stroke="#A3A3A3" stroke-width="2" stroke-linecap="round"/>
<path d="M43 15L43 33" stroke="#A3A3A3" stroke-width="2" stroke-linecap="round"/>
<path d="M109 15L109 33" stroke="#A3A3A3" stroke-width="2" stroke-linecap="round"/>
<path d="M133 15L133 33" stroke="#A3A3A3" stroke-width="2" stroke-linecap="round"/>
<path d="M49 6L49 28" stroke="#A3A3A3" stroke-width="2" stroke-linecap="round"/>
<path d="M127 6L127 28" stroke="#A3A3A3" stroke-width="2" stroke-linecap="round"/>
<path d="M55 1L55 33" stroke="#A3A3A3" stroke-width="2" stroke-linecap="round"/>
<path d="M175 1L175 33" stroke="#A3A3A3" stroke-width="2" stroke-linecap="round"/>
<path d="M187 1L187 33" stroke="#A3A3A3" stroke-width="2" stroke-linecap="round"/>
<path d="M193 1L193 33" stroke="#A3A3A3" stroke-width="2" stroke-linecap="round"/>
<path d="M115 1L115 33" stroke="#A3A3A3" stroke-width="2" stroke-linecap="round"/>
<path d="M121 1L121 33" stroke="#A3A3A3" stroke-width="2" stroke-linecap="round"/>
<path d="M61 7L61 27" stroke="#A3A3A3" stroke-width="2" stroke-linecap="round"/>
<path d="M181 7L181 27" stroke="#A3A3A3" stroke-width="2" stroke-linecap="round"/>
<path d="M199 7L199 27" stroke="#A3A3A3" stroke-width="2" stroke-linecap="round"/>
<path d="M13 15V23" stroke="white" stroke-width="2" stroke-linecap="round"/>
</svg>
