<svg width="70" height="70" viewBox="0 0 70 70" fill="none" xmlns="http://www.w3.org/2000/svg">
<rect width="70" height="70" rx="35" fill="#0E0F11" fill-opacity="0.7"/>
<path d="M46.2423 37.9146L33.0157 45.4421C32.4256 45.7886 31.751 45.9805 31.0594 45.9986C30.3678 46.0167 29.6834 45.8603 29.0745 45.545C28.4656 45.2298 27.9535 44.7668 27.5895 44.2022C27.2255 43.6377 27.0222 42.9913 27 42.3278V27.6722C27.0222 27.0087 27.2255 26.3623 27.5895 25.7978C27.9535 25.2332 28.4656 24.7702 29.0745 24.455C29.6834 24.1397 30.3678 23.9833 31.0594 24.0014C31.751 24.0195 32.4256 24.2114 33.0157 24.5579L46.2423 32.0854C46.7765 32.38 47.2203 32.8045 47.5289 33.3163C47.8375 33.828 48 34.4088 48 35C48 35.5912 47.8375 36.172 47.5289 36.6837C47.2203 37.1955 46.7765 37.62 46.2423 37.9146Z" fill="white"/>
</svg>
